<?xml version="1.0" encoding="UTF-8"?>
<svg width="28px" height="28px" viewBox="0 0 28 28" version="1.1" xmlns="http://www.w3.org/2000/svg" xmlns:xlink="http://www.w3.org/1999/xlink">
    <title>2DD8961B-EA99-4D32-9EC2-FAA3FBE338C2</title>
    <g id="2_4_Summoner_NewTier_2018FS" stroke="none" stroke-width="1" fill="none" fill-rule="evenodd">
        <g id="Summoner_Detail_fronttest" transform="translate(-1011.000000, -423.000000)">
            <g id="recent-20---most-3-champions_2" transform="translate(489.000000, 283.000000)">
                <g id="position-rate" transform="translate(522.000000, 52.000000)">
                    <g id="JNG" transform="translate(0.000000, 86.000000)">
                        <g id="icon_mostposition_jng" transform="translate(0.000000, 2.000000)">
                            <rect id="Rectangle" x="0" y="0" width="28" height="28"></rect>
                            <path d="M14.5583524,27.8703704 C14.5583524,27.8703704 16.4805492,20.7407407 14.5583524,13.8703704 C12.6361556,7 7.12585812,1.68518519 4.94736842,0 C4.94736842,0 8.2791762,9.33333333 8.79176201,15.4259259 C8.79176201,15.4259259 6.87059039,10.6721481 2,9.46296296 C2,9.46296296 5.37589016,16.462963 6.01662243,20.3518519 C6.01662243,20.3518519 10.5868375,23.2462222 14.5583524,27.8703704" id="Fill-1" fill="#1F8ECD"></path>
                            <path d="M25.5789474,8.23148148 C21.6720183,10.1852593 19.0291259,14.966 17.751762,17.7857037 C18.1228741,20.4311852 18.1587551,22.9874815 18.0367597,25.2191852 C20.3003387,23.4334074 22.6951396,20.0931111 22.6951396,20.0931111 C22.6951396,20.0931111 23.1441648,16.6574074 23.0795789,14.6476296 C23.0160183,12.6388889 25.5789474,8.23148148 25.5789474,8.23148148" id="Fill-3" fill="#1F8ECD"></path>
                            <path d="M16.9080458,13.9807111 C17.3498947,13.1915259 17.8327506,12.380563 18.3545629,11.5654519 C18.468357,10.868563 18.5954783,10.0897481 18.7451533,9.20411852 C19.4494462,5.05597037 22.6531076,0.802044444 22.6531076,0.802044444 C17.9116888,3.28885926 15.4133455,8.55597037 15.4133455,8.55597037 C15.3210801,8.7613037 15.2523936,8.96352593 15.1796064,9.16678519 C15.8080366,10.5387852 16.3606041,11.9678222 16.7768238,13.4580444 C16.826032,13.6322667 16.8629382,13.8064889 16.9080458,13.9807111" id="Fill-5" fill="#1F8ECD"></path>
                        </g>
                    </g>
                </g>
            </g>
        </g>
    </g>
</svg>