<?xml version="1.0" encoding="UTF-8"?>
<svg width="28px" height="28px" viewBox="0 0 28 28" version="1.1" xmlns="http://www.w3.org/2000/svg" xmlns:xlink="http://www.w3.org/1999/xlink">
    <title>2159D0BC-8472-4E51-A022-989AE31BEAA6</title>
    <g id="2_4_Summoner_NewTier_2018FS" stroke="none" stroke-width="1" fill="none" fill-rule="evenodd">
        <g id="Summoner_Detail_fronttest" transform="translate(-1241.000000, -389.000000)">
            <g id="position-rate" transform="translate(1240.999618, 343.000509)">
                <g id="icon_mostposition_sup" transform="translate(0.000000, 46.000000)">
                    <rect id="Rectangle" x="0" y="0" width="28" height="28"></rect>
                    <polygon id="Fill-1" fill="#1F8ECD" points="0.000381818183 8.28313968 3.49902815 12.1998091 6.04000212 11.649388 4.81688287 13.7401094 8.285514 17.6666667 10.6210715 10.7430058 7.93377342 8.23809524"></polygon>
                    <polygon id="Fill-2" fill="#1F8ECD" points="17.3796922 10.7438125 19.7150434 17.6666667 23.1824303 13.7405669 21.9612949 11.650089 24.5011066 12.2004461 28.0003818 8.28423295 20.0676908 8.23809524"></polygon>
                    <polygon id="Fill-3" fill="#1F8ECD" points="14.0146483 11.3809524 13.9851949 11.3809524 13.1227644 11.3809524 10.6210715 21.8723002 13.956662 25 14.0431812 25 17.3796922 21.8723002 14.8770788 11.3809524"></polygon>
                    <polygon id="Fill-4" fill="#1F8ECD" points="11.8253409 3 9.62107147 6.34050361 13.592438 9.28571429 14.6485545 9.28571429 18.6210715 6.34050361 16.416802 3"></polygon>
                </g>
            </g>
        </g>
    </g>
</svg>